<svg width="208" height="81" viewBox="0 0 208 81" fill="none" xmlns="http://www.w3.org/2000/svg">
<path d="M26.5 46.65C26.5 46.05 26.5667 45.3 26.7 44.4C26.8667 43.5 27.1833 42.0667 27.65 40.1C28.1167 38.2 28.4167 36.8333 28.55 36C28.6833 35.1667 28.75 34.4667 28.75 33.9C28.75 33.0667 28.6 32.4333 28.3 32C28 31.5667 27.55 31.35 26.95 31.35C26.15 31.35 25.4 31.7667 24.7 32.6C24.0333 33.4 23.4833 34.5167 23.05 35.95L19.65 52H12.45L16.1 34.75C16.1667 34.55 16.2 34.35 16.2 34.15C16.2333 33.95 16.25 33.7333 16.25 33.5C16.25 32.8333 16.1167 32.3 15.85 31.9C15.5833 31.5 15.2167 31.3 14.75 31.3C13.8833 31.3 13.1 31.7167 12.4 32.55C11.7 33.35 11.1333 34.4833 10.7 35.95L7.3 52H0.0999999L5.4 27H12.6L12.05 29.6C12.8833 28.6333 13.8 27.9167 14.8 27.45C15.8 26.9833 16.9167 26.75 18.15 26.75C19.6167 26.75 20.7667 27.1167 21.6 27.85C22.4667 28.55 23.0333 29.6167 23.3 31.05C24.2333 29.6167 25.2667 28.55 26.4 27.85C27.5333 27.15 28.8167 26.8 30.25 26.8C32.0167 26.8 33.3833 27.2833 34.35 28.25C35.3167 29.2167 35.8 30.6167 35.8 32.45C35.8 33.2167 35.7 34.1333 35.5 35.2C35.3333 36.2333 34.9833 37.8333 34.45 40C34.0167 41.7 33.7333 42.9 33.6 43.6C33.4667 44.3 33.4 44.8833 33.4 45.35C33.4 46.05 33.5667 46.5833 33.9 46.95C34.2333 47.2833 34.7333 47.45 35.4 47.45C36.2333 47.45 36.95 47.1667 37.55 46.6C38.15 46.0333 38.8333 44.85 39.6 43.05H41.7C40.6333 46.15 39.3333 48.4667 37.8 50C36.3 51.5333 34.5 52.3 32.4 52.3C30.5333 52.3 29.0833 51.8 28.05 50.8C27.0167 49.7667 26.5 48.3833 26.5 46.65ZM47.9477 47.45C48.781 47.45 49.531 47.1 50.1977 46.4C50.8643 45.7 51.4143 44.6833 51.8477 43.35L55.3477 27H62.5477L57.5977 50.2C59.2643 49.6 60.5643 48.7667 61.4977 47.7C62.4643 46.6 63.2643 45.05 63.8977 43.05H65.9977C65.231 45.5833 64.131 47.6167 62.6977 49.15C61.2977 50.6833 59.4477 51.7667 57.1477 52.4L56.3977 56C55.7977 58.8 54.7477 60.9167 53.2477 62.35C51.7477 63.7833 49.7977 64.5 47.3977 64.5C45.6977 64.5 44.331 64.0667 43.2977 63.2C42.2977 62.3333 41.7977 61.15 41.7977 59.65C41.7977 58.0167 42.4643 56.5667 43.7977 55.3C45.1643 54.0667 47.2143 53.0333 49.9477 52.2L50.5477 49.5C49.7143 50.4333 48.7977 51.1333 47.7977 51.6C46.831 52.0667 45.7477 52.3 44.5477 52.3C42.881 52.3 41.5643 51.7833 40.5977 50.75C39.6643 49.6833 39.1977 48.2 39.1977 46.3C39.1977 45.8667 39.231 45.3833 39.2977 44.85C39.3643 44.2833 39.4643 43.6833 39.5977 43.05L42.9977 27H50.1977L46.5977 44C46.5643 44.2 46.531 44.4167 46.4977 44.65C46.4643 44.85 46.4477 45.05 46.4477 45.25C46.4477 45.95 46.5643 46.5 46.7977 46.9C47.0643 47.2667 47.4477 47.45 47.9477 47.45ZM49.4477 54.7C47.781 55.3333 46.5477 55.9833 45.7477 56.65C44.9477 57.35 44.5477 58.1167 44.5477 58.95C44.5477 59.3833 44.7143 59.7667 45.0477 60.1C45.381 60.4333 45.781 60.6 46.2477 60.6C46.8143 60.6 47.3643 60.2 47.8977 59.4C48.431 58.6 48.8477 57.5167 49.1477 56.15L49.4477 54.7ZM75.8141 52H68.6141L75.4141 20.2L82.8141 19.2L80.4641 30.3H80.7641C82.6307 30.3 84.2974 29.45 85.7641 27.75C87.2307 26.05 87.9641 24.2 87.9641 22.2C87.9641 20.5333 87.3807 19.2167 86.2141 18.25C85.0807 17.2833 83.4641 16.8 81.3641 16.8C77.8641 16.8 74.8974 17.9167 72.4641 20.15C70.0641 22.3833 68.8641 25.3167 68.8641 28.95C68.8641 29.5833 68.8974 30.1333 68.9641 30.6C69.0641 31.0667 69.2141 31.5167 69.4141 31.95C69.4807 32.0833 69.5141 32.1833 69.5141 32.25C69.5474 32.2833 69.5641 32.3167 69.5641 32.35C67.7641 32.35 66.4141 31.9667 65.5141 31.2C64.6474 30.4333 64.2141 29.2833 64.2141 27.75C64.2141 25.95 64.7807 24.1833 65.9141 22.45C67.0807 20.7167 68.6807 19.2 70.7141 17.9C72.3807 16.8 74.2141 15.9667 76.2141 15.4C78.2474 14.8 80.2974 14.5 82.3641 14.5C85.6307 14.5 88.2141 15.2333 90.1141 16.7C92.0474 18.1667 93.0141 20.0833 93.0141 22.45C93.0141 24.0167 92.5641 25.5167 91.6641 26.95C90.7641 28.3833 89.5474 29.5333 88.0141 30.4C89.9141 30.7667 91.3641 31.6667 92.3641 33.1C93.3974 34.5 93.9141 36.2833 93.9141 38.45C93.9141 40.0167 93.6807 41.6667 93.2141 43.4C92.7474 45.1333 92.0974 46.6667 91.2641 48C90.2641 49.6 89.0641 50.8167 87.6641 51.65C86.2641 52.45 84.6974 52.85 82.9641 52.85C81.3974 52.85 80.1807 52.5333 79.3141 51.9C78.4474 51.2667 78.0141 50.35 78.0141 49.15C78.0141 48.75 78.0641 48.3167 78.1641 47.85C78.2641 47.35 78.4307 46.8167 78.6641 46.25C79.2974 46.8833 79.8641 47.35 80.3641 47.65C80.8974 47.9167 81.4474 48.05 82.0141 48.05C83.5141 48.05 84.7141 47.1833 85.6141 45.45C86.5141 43.7167 86.9641 41.5833 86.9641 39.05C86.9641 36.95 86.5641 35.3667 85.7641 34.3C84.9641 33.2333 83.7807 32.7 82.2141 32.7C81.9807 32.7 81.6307 32.7167 81.1641 32.75C80.7307 32.7833 80.3141 32.8167 79.9141 32.85L75.8141 52ZM104.002 47.45C104.869 47.45 105.636 47.0833 106.302 46.35C107.002 45.5833 107.569 44.4833 108.002 43.05L111.402 27H118.602L115.002 44C114.936 44.3 114.886 44.5833 114.852 44.85C114.819 45.0833 114.802 45.3333 114.802 45.6C114.802 46.2667 114.952 46.75 115.252 47.05C115.586 47.3167 116.119 47.45 116.852 47.45C117.719 47.45 118.502 47.0667 119.202 46.3C119.902 45.5333 120.469 44.45 120.902 43.05H123.002C121.936 46.1167 120.552 48.4333 118.852 50C117.152 51.5333 115.186 52.3 112.952 52.3C111.519 52.3 110.369 51.9 109.502 51.1C108.636 50.2667 108.136 49.0833 108.002 47.55C107.036 49.15 105.936 50.35 104.702 51.15C103.502 51.9167 102.136 52.3 100.602 52.3C98.9357 52.3 97.619 51.7833 96.6523 50.75C95.719 49.6833 95.2523 48.2 95.2523 46.3C95.2523 45.8667 95.2857 45.3833 95.3523 44.85C95.419 44.2833 95.519 43.6833 95.6523 43.05L99.0523 27H106.252L102.652 44C102.586 44.2667 102.536 44.5167 102.502 44.75C102.502 44.95 102.502 45.1667 102.502 45.4C102.502 46.0667 102.619 46.5833 102.852 46.95C103.119 47.2833 103.502 47.45 104.002 47.45ZM127.646 43.55C127.646 44.85 127.83 45.8333 128.196 46.5C128.563 47.1333 129.213 47.45 130.146 47.45C130.98 47.45 131.796 47.0667 132.596 46.3C133.396 45.5 133.946 44.5 134.246 43.3V43.05L136.696 31.6C136.596 31.0667 136.363 30.65 135.996 30.35C135.663 30.0167 135.213 29.85 134.646 29.85C132.813 29.85 131.18 31.3833 129.746 34.45C128.346 37.5167 127.646 40.55 127.646 43.55ZM137.146 29.3V29.5L139.596 18L146.996 17L141.246 44C141.18 44.3 141.13 44.5833 141.096 44.85C141.063 45.0833 141.046 45.3333 141.046 45.6C141.046 46.2667 141.196 46.75 141.496 47.05C141.83 47.3167 142.363 47.45 143.096 47.45C143.963 47.45 144.746 47.0667 145.446 46.3C146.146 45.5333 146.713 44.45 147.146 43.05H149.246C148.213 46.0167 146.863 48.25 145.196 49.75C143.563 51.25 141.563 52 139.196 52C137.83 52 136.713 51.6333 135.846 50.9C135.013 50.1333 134.496 49.0667 134.296 47.7C133.296 49.2333 132.18 50.3833 130.946 51.15C129.713 51.9167 128.363 52.3 126.896 52.3C124.83 52.3 123.196 51.6 121.996 50.2C120.83 48.8 120.246 46.8167 120.246 44.25C120.246 42.3833 120.53 40.4333 121.096 38.4C121.663 36.3667 122.446 34.5167 123.446 32.85C124.68 30.8833 126.113 29.3833 127.746 28.35C129.38 27.2833 131.163 26.75 133.096 26.75C134.396 26.75 135.396 26.9833 136.096 27.45C136.796 27.8833 137.146 28.5 137.146 29.3ZM163.416 29.3V29.6L163.966 27H171.166L166.216 50.2C167.883 49.6 169.183 48.7667 170.116 47.7C171.083 46.6 171.883 45.05 172.516 43.05H174.616C173.849 45.5833 172.749 47.6167 171.316 49.15C169.916 50.6833 168.066 51.7667 165.766 52.4L165.016 56C164.416 58.8 163.366 60.9167 161.866 62.35C160.366 63.7833 158.416 64.5 156.016 64.5C154.316 64.5 152.949 64.0667 151.916 63.2C150.916 62.3333 150.416 61.15 150.416 59.65C150.416 58.0167 151.083 56.5667 152.416 55.3C153.783 54.0667 155.833 53.0333 158.566 52.2L159.166 49.55C158.299 50.45 157.366 51.1333 156.366 51.6C155.366 52.0667 154.299 52.3 153.166 52.3C151.099 52.3 149.466 51.6 148.266 50.2C147.099 48.8 146.516 46.8167 146.516 44.25C146.516 42.3833 146.799 40.4333 147.366 38.4C147.933 36.3667 148.716 34.5167 149.716 32.85C150.949 30.8833 152.383 29.3833 154.016 28.35C155.649 27.2833 157.433 26.75 159.366 26.75C160.666 26.75 161.666 26.9833 162.366 27.45C163.066 27.8833 163.416 28.5 163.416 29.3ZM162.966 31.7C162.933 31.1667 162.733 30.7333 162.366 30.4C161.999 30.0333 161.516 29.85 160.916 29.85C159.083 29.85 157.449 31.3833 156.016 34.45C154.616 37.5167 153.916 40.55 153.916 43.55C153.916 44.85 154.099 45.8333 154.466 46.5C154.833 47.1333 155.483 47.45 156.416 47.45C157.216 47.45 157.999 47.0833 158.766 46.35C159.566 45.6167 160.116 44.6833 160.416 43.55L162.966 31.7ZM158.066 54.7C156.399 55.3333 155.166 55.9833 154.366 56.65C153.566 57.35 153.166 58.1167 153.166 58.95C153.166 59.3833 153.333 59.7667 153.666 60.1C153.999 60.4333 154.399 60.6 154.866 60.6C155.433 60.6 155.983 60.2 156.516 59.4C157.049 58.6 157.466 57.5167 157.766 56.15L158.066 54.7ZM190.858 31.35C190.858 34.1167 189.724 36.5333 187.458 38.6C185.191 40.6333 182.491 41.7333 179.358 41.9C179.324 42.4667 179.291 42.9 179.258 43.2C179.258 43.4667 179.258 43.7 179.258 43.9C179.258 45.4333 179.508 46.5167 180.008 47.15C180.541 47.7833 181.491 48.1 182.858 48.1C184.424 48.1 185.858 47.75 187.158 47.05C188.491 46.3167 190.008 44.9833 191.708 43.05H193.408C191.474 46.1833 189.374 48.5167 187.108 50.05C184.841 51.55 182.358 52.3 179.658 52.3C177.091 52.3 175.141 51.6333 173.808 50.3C172.508 48.9667 171.858 46.9833 171.858 44.35C171.858 42.45 172.158 40.4333 172.758 38.3C173.358 36.1667 174.158 34.2667 175.158 32.6C176.391 30.6 177.858 29.1 179.558 28.1C181.291 27.0667 183.224 26.55 185.358 26.55C187.191 26.55 188.558 26.95 189.458 27.75C190.391 28.5167 190.858 29.7167 190.858 31.35ZM185.758 29.2C184.624 29.2 183.474 30.2167 182.308 32.25C181.174 34.25 180.324 36.6667 179.758 39.5C181.691 39.3667 183.374 38.4833 184.808 36.85C186.274 35.1833 187.008 33.3167 187.008 31.25C187.008 30.55 186.908 30.0333 186.708 29.7C186.508 29.3667 186.191 29.2 185.758 29.2ZM193.496 27H195.146L196.646 20.1L204.046 19.1L202.346 27H205.346L204.946 29H201.946L198.746 44C198.679 44.3 198.629 44.5833 198.596 44.85C198.563 45.0833 198.546 45.3333 198.546 45.6C198.546 46.2667 198.696 46.75 198.996 47.05C199.329 47.3167 199.863 47.45 200.596 47.45C201.529 47.45 202.413 47.05 203.246 46.25C204.079 45.4167 204.696 44.35 205.096 43.05H207.196C206.129 46.0833 204.696 48.3833 202.896 49.95C201.096 51.5167 199.029 52.3 196.696 52.3C195.029 52.3 193.713 51.7833 192.746 50.75C191.813 49.6833 191.346 48.2 191.346 46.3C191.346 45.8667 191.379 45.3833 191.446 44.85C191.513 44.2833 191.613 43.6833 191.746 43.05L194.746 29H193.096L193.496 27Z" fill="url(#paint0_linear_26_60)"/>
<defs>
<linearGradient id="paint0_linear_26_60" x1="104" y1="81" x2="104" y2="3.42554e-06" gradientUnits="userSpaceOnUse">
<stop stop-color="#F64C18"/>
<stop offset="1" stop-color="#EE9539"/>
</linearGradient>
</defs>
</svg>
